STARTFONT 2.1
FONT -Cronyx-Times-Medium-R-Normal--12-120-75-75-P-64-KOI8-C
SIZE 12 72 72
FONTBOUNDINGBOX 10 14 0 -3
STARTPROPERTIES 23
DEFAULT_CHAR 32
FONT_ASCENT 12
FONT_DESCENT 3
SPACING "P"
FONTNAME_REGISTRY ""
FOUNDRY "Cronyx"
FAMILY_NAME "Times"
WEIGHT_NAME "Medium"
SLANT "R"
SETWIDTH_NAME "Normal"
ADD_STYLE_NAME ""
AVERAGE_WIDTH 64
CHARSET_REGISTRY "KOI8"
CHARSET_ENCODING "C"
PIXEL_SIZE 12
POINT_SIZE 120
RESOLUTION_X 75
RESOLUTION_Y 75
COPYRIGHT "Copyright (C) 1990, 1991 EWT Consulting, Portions Copyright (C) 1996-1997 by Andrey A. Chernov, Moscow, Russia."
_XMBDFED_INFO "Edited with xmbdfed 3.8."
_XFREE86_GLYPH_RANGES "3_10 26_27 30_255"
X_HEIGHT 7
CAP_HEIGHT 9
ENDPROPERTIES
CHARS 236
STARTCHAR multi
ENCODING 3
SWIDTH 500 0
DWIDTH 6 0
BBX 5 5 1 1
BITMAP
88
50
20
50
88
ENDCHAR
STARTCHAR divide
ENCODING 4
SWIDTH 500 0
DWIDTH 6 0
BBX 5 7 1 0
BITMAP
20
20
00
F8
00
20
20
ENDCHAR
STARTCHAR promille
ENCODING 5
SWIDTH 833 0
DWIDTH 10 0
BBX 9 9 1 0
BITMAP
4400
A400
A800
A800
5500
1A80
2A80
2A80
4500
ENDCHAR
STARTCHAR approx
ENCODING 6
SWIDTH 500 0
DWIDTH 6 0
BBX 5 6 1 1
BITMAP
48
A8
90
48
A8
90
ENDCHAR
STARTCHAR degree
ENCODING 7
SWIDTH 416 0
DWIDTH 5 0
BBX 4 9 1 -2
BITMAP
90
90
90
90
90
B0
D0
80
80
ENDCHAR
STARTCHAR plusminus
ENCODING 8
SWIDTH 500 0
DWIDTH 6 0
BBX 5 6 1 0
BITMAP
20
20
F8
20
20
F8
ENDCHAR
STARTCHAR pilcrow
ENCODING 9
SWIDTH 583 0
DWIDTH 7 0
BBX 6 9 1 0
BITMAP
7C
E8
E8
E8
68
28
28
28
6C
ENDCHAR
STARTCHAR ddagger
ENCODING 10
SWIDTH 500 0
DWIDTH 6 0
BBX 5 9 1 0
BITMAP
20
20
F8
20
20
20
F8
20
20
ENDCHAR
STARTCHAR lessequal
ENCODING 26
SWIDTH 500 0
DWIDTH 6 0
BBX 5 8 1 0
BITMAP
08
30
40
80
40
30
08
F8
ENDCHAR
STARTCHAR greaterequal
ENCODING 27
SWIDTH 500 0
DWIDTH 6 0
BBX 5 8 1 0
BITMAP
80
60
10
08
10
60
80
F8
ENDCHAR
STARTCHAR currency
ENCODING 30
SWIDTH 500 0
DWIDTH 6 0
BBX 5 7 1 0
BITMAP
88
88
70
88
70
88
88
ENDCHAR
STARTCHAR twosuperior
ENCODING 31
SWIDTH 333 0
DWIDTH 4 0
BBX 3 5 1 4
BITMAP
C0
20
40
80
E0
ENDCHAR
STARTCHAR space
ENCODING 32
SWIDTH 166 0
DWIDTH 2 0
BBX 0 0 0 0
BITMAP
ENDCHAR
STARTCHAR exclam
ENCODING 33
SWIDTH 333 0
DWIDTH 4 0
BBX 1 9 2 0
BITMAP
80
80
80
80
80
80
00
00
80
ENDCHAR
STARTCHAR quotedbl
ENCODING 34
SWIDTH 333 0
DWIDTH 4 0
BBX 3 3 1 6
BITMAP
A0
A0
A0
ENDCHAR
STARTCHAR numbersign
ENCODING 35
SWIDTH 666 0
DWIDTH 8 0
BBX 7 9 1 0
BITMAP
14
14
7E
28
28
28
FC
50
50
ENDCHAR
STARTCHAR dollar
ENCODING 36
SWIDTH 416 0
DWIDTH 5 0
BBX 4 10 1 -1
BITMAP
20
70
90
C0
60
30
90
E0
40
40
ENDCHAR
STARTCHAR percent
ENCODING 37
SWIDTH 750 0
DWIDTH 9 0
BBX 8 9 1 0
BITMAP
44
A4
A8
A8
52
15
25
25
42
ENDCHAR
STARTCHAR ampersand
ENCODING 38
SWIDTH 666 0
DWIDTH 8 0
BBX 7 9 1 0
BITMAP
30
48
48
30
66
94
94
88
76
ENDCHAR
STARTCHAR quotesingle
ENCODING 39
SWIDTH 166 0
DWIDTH 2 0
BBX 1 3 1 6
BITMAP
80
80
80
ENDCHAR
STARTCHAR parenleft
ENCODING 40
SWIDTH 333 0
DWIDTH 4 0
BBX 3 11 1 -2
BITMAP
20
40
40
80
80
80
80
80
40
40
20
ENDCHAR
STARTCHAR parenright
ENCODING 41
SWIDTH 333 0
DWIDTH 4 0
BBX 3 11 1 -2
BITMAP
80
40
40
20
20
20
20
20
40
40
80
ENDCHAR
STARTCHAR asterisk
ENCODING 42
SWIDTH 333 0
DWIDTH 4 0
BBX 3 4 1 5
BITMAP
40
E0
40
A0
ENDCHAR
STARTCHAR plus
ENCODING 43
SWIDTH 500 0
DWIDTH 6 0
BBX 5 7 1 0
BITMAP
20
20
20
F8
20
20
20
ENDCHAR
STARTCHAR comma
ENCODING 44
SWIDTH 166 0
DWIDTH 2 0
BBX 1 2 1 -1
BITMAP
80
80
ENDCHAR
STARTCHAR hyphen
ENCODING 45
SWIDTH 333 0
DWIDTH 4 0
BBX 3 1 1 3
BITMAP
E0
ENDCHAR
STARTCHAR period
ENCODING 46
SWIDTH 166 0
DWIDTH 2 0
BBX 1 1 1 0
BITMAP
80
ENDCHAR
STARTCHAR slash
ENCODING 47
SWIDTH 333 0
DWIDTH 4 0
BBX 3 10 1 -1
BITMAP
20
20
20
40
40
40
40
80
80
80
ENDCHAR
STARTCHAR zero
ENCODING 48
SWIDTH 416 0
DWIDTH 5 0
BBX 4 9 1 0
BITMAP
60
90
90
90
90
90
90
90
60
ENDCHAR
STARTCHAR one
ENCODING 49
SWIDTH 416 0
DWIDTH 5 0
BBX 3 9 2 0
BITMAP
40
C0
40
40
40
40
40
40
E0
ENDCHAR
STARTCHAR two
ENCODING 50
SWIDTH 416 0
DWIDTH 5 0
BBX 4 9 1 0
BITMAP
60
90
90
10
20
20
40
90
F0
ENDCHAR
STARTCHAR three
ENCODING 51
SWIDTH 416 0
DWIDTH 5 0
BBX 4 9 1 0
BITMAP
60
90
90
10
60
10
90
90
60
ENDCHAR
STARTCHAR four
ENCODING 52
SWIDTH 416 0
DWIDTH 5 0
BBX 4 8 1 0
BITMAP
20
A0
A0
A0
A0
F0
20
20
ENDCHAR
STARTCHAR five
ENCODING 53
SWIDTH 416 0
DWIDTH 5 0
BBX 4 9 1 0
BITMAP
F0
80
80
E0
10
10
90
90
60
ENDCHAR
STARTCHAR six
ENCODING 54
SWIDTH 416 0
DWIDTH 5 0
BBX 4 9 1 0
BITMAP
60
90
80
A0
D0
90
90
90
60
ENDCHAR
STARTCHAR seven
ENCODING 55
SWIDTH 416 0
DWIDTH 5 0
BBX 4 9 1 0
BITMAP
F0
90
90
20
20
20
40
40
40
ENDCHAR
STARTCHAR eight
ENCODING 56
SWIDTH 416 0
DWIDTH 5 0
BBX 4 9 1 0
BITMAP
60
90
90
90
60
90
90
90
60
ENDCHAR
STARTCHAR nine
ENCODING 57
SWIDTH 416 0
DWIDTH 5 0
BBX 4 9 1 0
BITMAP
60
90
90
90
B0
50
10
90
60
ENDCHAR
STARTCHAR colon
ENCODING 58
SWIDTH 250 0
DWIDTH 3 0
BBX 1 7 1 0
BITMAP
80
00
00
00
00
00
80
ENDCHAR
STARTCHAR semicolon
ENCODING 59
SWIDTH 250 0
DWIDTH 3 0
BBX 1 8 1 -1
BITMAP
80
00
00
00
00
00
80
80
ENDCHAR
STARTCHAR less
ENCODING 60
SWIDTH 500 0
DWIDTH 6 0
BBX 5 7 1 0
BITMAP
08
30
40
80
40
30
08
ENDCHAR
STARTCHAR equal
ENCODING 61
SWIDTH 500 0
DWIDTH 6 0
BBX 5 3 1 2
BITMAP
F8
00
F8
ENDCHAR
STARTCHAR greater
ENCODING 62
SWIDTH 500 0
DWIDTH 6 0
BBX 5 7 1 0
BITMAP
80
60
10
08
10
60
80
ENDCHAR
STARTCHAR question
ENCODING 63
SWIDTH 416 0
DWIDTH 5 0
BBX 4 9 1 0
BITMAP
60
90
10
20
40
40
40
00
40
ENDCHAR
STARTCHAR at
ENCODING 64
SWIDTH 833 0
DWIDTH 10 0
BBX 9 10 1 -1
BITMAP
1E00
2100
4080
8C80
9480
9480
9480
8F00
4000
3E00
ENDCHAR
STARTCHAR A
ENCODING 65
SWIDTH 666 0
DWIDTH 8 0
BBX 8 9 0 0
BITMAP
08
08
14
14
22
3E
41
41
E3
ENDCHAR
STARTCHAR B
ENCODING 66
SWIDTH 583 0
DWIDTH 7 0
BBX 6 9 1 0
BITMAP
F8
44
44
44
78
44
44
44
F8
ENDCHAR
STARTCHAR C
ENCODING 67
SWIDTH 583 0
DWIDTH 7 0
BBX 6 9 1 0
BITMAP
34
4C
84
80
80
80
84
48
30
ENDCHAR
STARTCHAR D
ENCODING 68
SWIDTH 583 0
DWIDTH 7 0
BBX 6 9 1 0
BITMAP
F0
48
44
44
44
44
44
48
F0
ENDCHAR
STARTCHAR E
ENCODING 69
SWIDTH 583 0
DWIDTH 7 0
BBX 6 9 1 0
BITMAP
FC
44
44
40
70
40
44
44
FC
ENDCHAR
STARTCHAR F
ENCODING 70
SWIDTH 500 0
DWIDTH 6 0
BBX 5 9 1 0
BITMAP
F8
48
48
40
70
40
40
40
E0
ENDCHAR
STARTCHAR G
ENCODING 71
SWIDTH 666 0
DWIDTH 8 0
BBX 7 9 1 0
BITMAP
34
4C
84
80
8E
84
84
44
38
ENDCHAR
STARTCHAR H
ENCODING 72
SWIDTH 666 0
DWIDTH 8 0
BBX 7 9 1 0
BITMAP
EE
44
44
44
7C
44
44
44
EE
ENDCHAR
STARTCHAR I
ENCODING 73
SWIDTH 333 0
DWIDTH 4 0
BBX 3 9 1 0
BITMAP
E0
40
40
40
40
40
40
40
E0
ENDCHAR
STARTCHAR J
ENCODING 74
SWIDTH 333 0
DWIDTH 4 0
BBX 4 9 0 0
BITMAP
70
20
20
20
20
20
20
A0
C0
ENDCHAR
STARTCHAR K
ENCODING 75
SWIDTH 666 0
DWIDTH 8 0
BBX 7 9 1 0
BITMAP
E6
44
48
50
70
48
48
44
E6
ENDCHAR
STARTCHAR L
ENCODING 76
SWIDTH 500 0
DWIDTH 6 0
BBX 5 9 1 0
BITMAP
E0
40
40
40
40
40
48
48
F8
ENDCHAR
STARTCHAR M
ENCODING 77
SWIDTH 833 0
DWIDTH 10 0
BBX 9 9 1 0
BITMAP
C180
4100
6300
6300
5500
5500
5500
4900
C980
ENDCHAR
STARTCHAR N
ENCODING 78
SWIDTH 666 0
DWIDTH 8 0
BBX 7 9 1 0
BITMAP
CE
44
64
54
54
4C
44
44
E4
ENDCHAR
STARTCHAR O
ENCODING 79
SWIDTH 666 0
DWIDTH 8 0
BBX 7 9 1 0
BITMAP
38
44
82
82
82
82
82
44
38
ENDCHAR
STARTCHAR P
ENCODING 80
SWIDTH 583 0
DWIDTH 7 0
BBX 6 9 1 0
BITMAP
F8
44
44
44
78
40
40
40
E0
ENDCHAR
STARTCHAR Q
ENCODING 81
SWIDTH 666 0
DWIDTH 8 0
BBX 7 10 1 -1
BITMAP
38
44
82
82
82
82
82
44
38
0E
ENDCHAR
STARTCHAR R
ENCODING 82
SWIDTH 666 0
DWIDTH 8 0
BBX 7 9 1 0
BITMAP
F8
44
44
44
78
48
44
44
C6
ENDCHAR
STARTCHAR S
ENCODING 83
SWIDTH 500 0
DWIDTH 6 0
BBX 5 9 1 0
BITMAP
68
98
88
60
30
18
88
C8
B0
ENDCHAR
STARTCHAR T
ENCODING 84
SWIDTH 500 0
DWIDTH 6 0
BBX 5 9 1 0
BITMAP
F8
A8
20
20
20
20
20
20
70
ENDCHAR
STARTCHAR U
ENCODING 85
SWIDTH 666 0
DWIDTH 8 0
BBX 7 9 1 0
BITMAP
EE
44
44
44
44
44
44
44
38
ENDCHAR
STARTCHAR V
ENCODING 86
SWIDTH 666 0
DWIDTH 8 0
BBX 8 9 0 0
BITMAP
E3
41
41
22
22
14
14
08
08
ENDCHAR
STARTCHAR W
ENCODING 87
SWIDTH 833 0
DWIDTH 10 0
BBX 10 9 0 0
BITMAP
EEC0
4440
4440
4440
2A80
2A80
2A80
1100
1100
ENDCHAR
STARTCHAR X
ENCODING 88
SWIDTH 666 0
DWIDTH 8 0
BBX 7 9 1 0
BITMAP
E6
44
28
28
10
28
28
44
CE
ENDCHAR
STARTCHAR Y
ENCODING 89
SWIDTH 666 0
DWIDTH 8 0
BBX 7 9 1 0
BITMAP
E6
44
44
28
28
10
10
10
38
ENDCHAR
STARTCHAR Z
ENCODING 90
SWIDTH 500 0
DWIDTH 6 0
BBX 5 9 1 0
BITMAP
F8
88
90
10
20
40
48
88
F8
ENDCHAR
STARTCHAR bracketleft
ENCODING 91
SWIDTH 250 0
DWIDTH 3 0
BBX 2 11 1 -2
BITMAP
C0
80
80
80
80
80
80
80
80
80
C0
ENDCHAR
STARTCHAR backslash
ENCODING 92
SWIDTH 333 0
DWIDTH 4 0
BBX 3 10 1 -1
BITMAP
80
80
80
40
40
40
40
20
20
20
ENDCHAR
STARTCHAR bracketright
ENCODING 93
SWIDTH 250 0
DWIDTH 3 0
BBX 2 11 1 -2
BITMAP
C0
40
40
40
40
40
40
40
40
40
C0
ENDCHAR
STARTCHAR asciicircum
ENCODING 94
SWIDTH 500 0
DWIDTH 6 0
BBX 5 3 1 6
BITMAP
20
50
88
ENDCHAR
STARTCHAR underscore
ENCODING 95
SWIDTH 416 0
DWIDTH 5 0
BBX 5 1 0 -1
BITMAP
F8
ENDCHAR
STARTCHAR grave
ENCODING 96
SWIDTH 416 0
DWIDTH 5 0
BBX 2 2 2 8
BITMAP
80
40
ENDCHAR
STARTCHAR a
ENCODING 97
SWIDTH 416 0
DWIDTH 5 0
BBX 4 7 1 0
BITMAP
60
90
10
70
90
90
70
ENDCHAR
STARTCHAR b
ENCODING 98
SWIDTH 500 0
DWIDTH 6 0
BBX 5 9 1 0
BITMAP
C0
40
50
68
48
48
48
48
30
ENDCHAR
STARTCHAR c
ENCODING 99
SWIDTH 416 0
DWIDTH 5 0
BBX 4 7 1 0
BITMAP
70
90
80
80
80
90
60
ENDCHAR
STARTCHAR d
ENCODING 100
SWIDTH 416 0
DWIDTH 5 0
BBX 4 9 1 0
BITMAP
30
10
70
90
90
90
90
B0
50
ENDCHAR
STARTCHAR e
ENCODING 101
SWIDTH 416 0
DWIDTH 5 0
BBX 4 7 1 0
BITMAP
60
90
90
F0
80
90
60
ENDCHAR
STARTCHAR f
ENCODING 102
SWIDTH 333 0
DWIDTH 4 0
BBX 3 9 1 0
BITMAP
20
40
E0
40
40
40
40
40
40
ENDCHAR
STARTCHAR g
ENCODING 103
SWIDTH 416 0
DWIDTH 5 0
BBX 4 9 1 -2
BITMAP
70
90
90
60
80
E0
90
90
60
ENDCHAR
STARTCHAR h
ENCODING 104
SWIDTH 416 0
DWIDTH 5 0
BBX 5 9 0 0
BITMAP
C0
40
70
48
48
48
48
48
48
ENDCHAR
STARTCHAR i
ENCODING 105
SWIDTH 166 0
DWIDTH 2 0
BBX 1 9 1 0
BITMAP
80
00
80
80
80
80
80
80
80
ENDCHAR
STARTCHAR j
ENCODING 106
SWIDTH 250 0
DWIDTH 3 0
BBX 3 11 0 -2
BITMAP
20
00
60
20
20
20
20
20
20
20
C0
ENDCHAR
STARTCHAR k
ENCODING 107
SWIDTH 500 0
DWIDTH 6 0
BBX 5 9 1 0
BITMAP
C0
40
48
50
60
50
50
48
48
ENDCHAR
STARTCHAR l
ENCODING 108
SWIDTH 166 0
DWIDTH 2 0
BBX 2 9 0 0
BITMAP
C0
40
40
40
40
40
40
40
40
ENDCHAR
STARTCHAR m
ENCODING 109
SWIDTH 666 0
DWIDTH 8 0
BBX 7 7 1 0
BITMAP
EC
92
92
92
92
92
92
ENDCHAR
STARTCHAR n
ENCODING 110
SWIDTH 416 0
DWIDTH 5 0
BBX 4 7 1 0
BITMAP
E0
90
90
90
90
90
90
ENDCHAR
STARTCHAR o
ENCODING 111
SWIDTH 416 0
DWIDTH 5 0
BBX 4 7 1 0
BITMAP
60
90
90
90
90
90
60
ENDCHAR
STARTCHAR p
ENCODING 112
SWIDTH 416 0
DWIDTH 5 0
BBX 4 9 1 -2
BITMAP
A0
D0
90
90
90
90
E0
80
C0
ENDCHAR
STARTCHAR q
ENCODING 113
SWIDTH 500 0
DWIDTH 6 0
BBX 5 9 1 -2
BITMAP
50
B0
90
90
90
90
70
10
18
ENDCHAR
STARTCHAR r
ENCODING 114
SWIDTH 333 0
DWIDTH 4 0
BBX 3 7 1 0
BITMAP
E0
A0
80
80
80
80
80
ENDCHAR
STARTCHAR s
ENCODING 115
SWIDTH 416 0
DWIDTH 5 0
BBX 4 7 1 0
BITMAP
70
90
80
60
10
90
E0
ENDCHAR
STARTCHAR t
ENCODING 116
SWIDTH 333 0
DWIDTH 4 0
BBX 3 8 1 0
BITMAP
40
E0
40
40
40
40
40
20
ENDCHAR
STARTCHAR u
ENCODING 117
SWIDTH 416 0
DWIDTH 5 0
BBX 4 7 1 0
BITMAP
90
90
90
90
90
90
70
ENDCHAR
STARTCHAR v
ENCODING 118
SWIDTH 500 0
DWIDTH 6 0
BBX 5 7 1 0
BITMAP
88
88
50
50
50
20
20
ENDCHAR
STARTCHAR w
ENCODING 119
SWIDTH 666 0
DWIDTH 8 0
BBX 7 7 1 0
BITMAP
92
92
AA
AA
AA
44
44
ENDCHAR
STARTCHAR x
ENCODING 120
SWIDTH 500 0
DWIDTH 6 0
BBX 5 7 1 0
BITMAP
88
C8
50
20
50
98
88
ENDCHAR
STARTCHAR y
ENCODING 121
SWIDTH 500 0
DWIDTH 6 0
BBX 5 9 1 -2
BITMAP
88
88
50
50
50
20
20
A0
C0
ENDCHAR
STARTCHAR z
ENCODING 122
SWIDTH 416 0
DWIDTH 5 0
BBX 4 7 1 0
BITMAP
F0
90
20
60
40
90
F0
ENDCHAR
STARTCHAR braceleft
ENCODING 123
SWIDTH 333 0
DWIDTH 4 0
BBX 3 11 1 -2
BITMAP
20
40
40
40
40
80
40
40
40
40
20
ENDCHAR
STARTCHAR bar
ENCODING 124
SWIDTH 333 0
DWIDTH 4 0
BBX 1 12 2 -3
BITMAP
80
80
80
80
80
80
80
80
80
80
80
80
ENDCHAR
STARTCHAR braceright
ENCODING 125
SWIDTH 333 0
DWIDTH 4 0
BBX 3 11 1 -2
BITMAP
80
40
40
40
40
20
40
40
40
40
80
ENDCHAR
STARTCHAR asciitilde
ENCODING 126
SWIDTH 500 0
DWIDTH 6 0
BBX 5 3 1 6
BITMAP
48
A8
90
ENDCHAR
STARTCHAR not
ENCODING 127
SWIDTH 333 0
DWIDTH 4 0
BBX 3 2 1 2
BITMAP
E0
20
ENDCHAR
STARTCHAR afii10051
ENCODING 128
SWIDTH 416 0
DWIDTH 5 0
BBX 5 9 0 0
BITMAP
F0
40
70
48
48
48
58
58
50
ENDCHAR
STARTCHAR afii10052
ENCODING 129
SWIDTH 583 0
DWIDTH 7 0
BBX 6 11 1 0
BITMAP
08
10
FC
44
40
40
40
40
40
40
E0
ENDCHAR
STARTCHAR cedilla
ENCODING 130
SWIDTH 250 0
DWIDTH 3 0
BBX 2 3 1 -1
BITMAP
80
40
80
ENDCHAR
STARTCHAR afii10100
ENCODING 131
SWIDTH 416 0
DWIDTH 5 0
BBX 4 9 1 0
BITMAP
10
20
F0
50
40
40
40
40
E0
ENDCHAR
STARTCHAR quotedblbase
ENCODING 132
SWIDTH 333 0
DWIDTH 4 0
BBX 4 3 0 -2
BITMAP
F0
50
50
ENDCHAR
STARTCHAR ellipsis
ENCODING 133
SWIDTH 583 0
DWIDTH 7 0
BBX 5 1 1 0
BITMAP
A8
ENDCHAR
STARTCHAR dagger
ENCODING 134
SWIDTH 500 0
DWIDTH 6 0
BBX 5 9 1 0
BITMAP
20
20
F8
20
20
20
20
20
20
ENDCHAR
STARTCHAR section
ENCODING 135
SWIDTH 333 0
DWIDTH 4 0
BBX 3 10 1 0
BITMAP
40
A0
80
40
A0
A0
40
20
A0
40
ENDCHAR
STARTCHAR Euro
ENCODING 136
SWIDTH 583 0
DWIDTH 7 0
BBX 7 9 0 0
BITMAP
1A
26
42
F8
40
F8
42
24
18
ENDCHAR
STARTCHAR dieresis
ENCODING 137
SWIDTH 333 0
DWIDTH 4 0
BBX 3 2 1 7
BITMAP
A0
A0
ENDCHAR
STARTCHAR afii10058
ENCODING 138
SWIDTH 750 0
DWIDTH 9 0
BBX 8 9 1 0
BITMAP
7C
24
24
24
26
25
25
25
CE
ENDCHAR
STARTCHAR guilsinglleft
ENCODING 139
SWIDTH 500 0
DWIDTH 6 0
BBX 5 7 1 0
BITMAP
08
30
40
C0
40
30
08
ENDCHAR
STARTCHAR afii10059
ENCODING 140
SWIDTH 750 0
DWIDTH 9 0
BBX 8 9 1 0
BITMAP
EE
44
44
44
7E
45
45
45
EE
ENDCHAR
STARTCHAR afii10061
ENCODING 141
SWIDTH 666 0
DWIDTH 8 0
BBX 7 11 1 0
BITMAP
08
10
E6
44
48
50
70
48
48
44
E6
ENDCHAR
STARTCHAR afii10060
ENCODING 142
SWIDTH 416 0
DWIDTH 5 0
BBX 5 9 0 0
BITMAP
F0
40
70
48
48
48
48
48
48
ENDCHAR
STARTCHAR afii10145
ENCODING 143
SWIDTH 666 0
DWIDTH 8 0
BBX 7 11 1 -2
BITMAP
EE
44
44
44
44
44
44
44
FE
10
10
ENDCHAR
STARTCHAR afii10099
ENCODING 144
SWIDTH 416 0
DWIDTH 5 0
BBX 5 12 0 -2
BITMAP
40
F0
40
70
48
48
48
48
48
48
10
20
ENDCHAR
STARTCHAR quoteleft
ENCODING 145
SWIDTH 250 0
DWIDTH 3 0
BBX 2 3 1 6
BITMAP
80
80
C0
ENDCHAR
STARTCHAR quoteright
ENCODING 146
SWIDTH 166 0
DWIDTH 2 0
BBX 2 3 0 6
BITMAP
C0
40
40
ENDCHAR
STARTCHAR quotedblleft
ENCODING 147
SWIDTH 416 0
DWIDTH 5 0
BBX 4 3 1 6
BITMAP
A0
A0
F0
ENDCHAR
STARTCHAR quotedblright
ENCODING 148
SWIDTH 333 0
DWIDTH 4 0
BBX 4 3 0 6
BITMAP
F0
50
50
ENDCHAR
STARTCHAR bullet
ENCODING 149
SWIDTH 333 0
DWIDTH 4 0
BBX 3 5 1 1
BITMAP
40
E0
E0
E0
40
ENDCHAR
STARTCHAR endash
ENCODING 150
SWIDTH 416 0
DWIDTH 5 0
BBX 4 1 1 3
BITMAP
F0
ENDCHAR
STARTCHAR emdash
ENCODING 151
SWIDTH 583 0
DWIDTH 7 0
BBX 6 1 1 3
BITMAP
FC
ENDCHAR
STARTCHAR sterling
ENCODING 152
SWIDTH 666 0
DWIDTH 8 0
BBX 7 9 1 0
BITMAP
18
24
24
20
78
20
20
72
8C
ENDCHAR
STARTCHAR periodcentered
ENCODING 153
SWIDTH 166 0
DWIDTH 2 0
BBX 1 1 1 3
BITMAP
80
ENDCHAR
STARTCHAR afii10106
ENCODING 154
SWIDTH 583 0
DWIDTH 7 0
BBX 6 7 1 0
BITMAP
70
50
50
58
54
54
98
ENDCHAR
STARTCHAR guilsinglright
ENCODING 155
SWIDTH 416 0
DWIDTH 5 0
BBX 4 5 1 1
BITMAP
C0
20
30
20
C0
ENDCHAR
STARTCHAR afii10107
ENCODING 156
SWIDTH 583 0
DWIDTH 7 0
BBX 6 7 1 0
BITMAP
90
90
90
F8
94
94
98
ENDCHAR
STARTCHAR afii10109
ENCODING 157
SWIDTH 583 0
DWIDTH 7 0
BBX 6 9 1 0
BITMAP
08
10
EC
48
50
60
50
48
EC
ENDCHAR
STARTCHAR afii10108
ENCODING 158
SWIDTH 416 0
DWIDTH 5 0
BBX 5 10 0 0
BITMAP
40
F0
40
70
48
48
48
48
48
48
ENDCHAR
STARTCHAR afii10193
ENCODING 159
SWIDTH 583 0
DWIDTH 7 0
BBX 6 9 1 -2
BITMAP
DC
48
48
48
48
48
FC
30
30
ENDCHAR
STARTCHAR space
ENCODING 160
SWIDTH 166 0
DWIDTH 2 0
BBX 0 0 0 0
BITMAP
ENDCHAR
STARTCHAR afii10196
ENCODING 161
SWIDTH 583 0
DWIDTH 7 0
BBX 6 7 1 0
BITMAP
80
8C
50
50
50
20
20
ENDCHAR
STARTCHAR afii10194
ENCODING 162
SWIDTH 583 0
DWIDTH 7 0
BBX 6 9 1 0
BITMAP
60
20
F8
A8
20
38
24
24
78
ENDCHAR
STARTCHAR afii10071
ENCODING 163
SWIDTH 416 0
DWIDTH 5 0
BBX 4 8 1 0
BITMAP
90
60
90
90
F0
80
90
60
ENDCHAR
STARTCHAR afii10101
ENCODING 164
SWIDTH 500 0
DWIDTH 6 0
BBX 5 7 1 0
BITMAP
70
88
80
F0
80
88
70
ENDCHAR
STARTCHAR afii10102
ENCODING 165
SWIDTH 416 0
DWIDTH 5 0
BBX 4 7 1 0
BITMAP
70
90
80
60
10
90
E0
ENDCHAR
STARTCHAR afii10103
ENCODING 166
SWIDTH 166 0
DWIDTH 2 0
BBX 1 9 1 0
BITMAP
80
00
80
80
80
80
80
80
80
ENDCHAR
STARTCHAR afii10104
ENCODING 167
SWIDTH 250 0
DWIDTH 3 0
BBX 3 9 0 0
BITMAP
A0
00
40
40
40
40
40
40
40
ENDCHAR
STARTCHAR afii10105
ENCODING 168
SWIDTH 250 0
DWIDTH 3 0
BBX 3 11 0 -2
BITMAP
20
00
60
20
20
20
20
20
20
20
C0
ENDCHAR
STARTCHAR registered
ENCODING 169
SWIDTH 750 0
DWIDTH 9 0
BBX 8 9 1 0
BITMAP
3C
42
B9
A5
B9
A5
A5
42
3C
ENDCHAR
STARTCHAR trademark
ENCODING 170
SWIDTH 666 0
DWIDTH 8 0
BBX 7 4 1 5
BITMAP
F2
5E
52
52
ENDCHAR
STARTCHAR guillemotleft
ENCODING 171
SWIDTH 750 0
DWIDTH 9 0
BBX 8 7 1 0
BITMAP
09
32
44
98
44
32
09
ENDCHAR
STARTCHAR afii10195
ENCODING 172
SWIDTH 416 0
DWIDTH 5 0
BBX 4 7 1 0
BITMAP
60
90
90
F0
90
90
60
ENDCHAR
STARTCHAR afii10098
ENCODING 173
SWIDTH 416 0
DWIDTH 5 0
BBX 4 8 1 0
BITMAP
10
F0
40
40
40
40
40
E0
ENDCHAR
STARTCHAR afii10110
ENCODING 174
SWIDTH 583 0
DWIDTH 7 0
BBX 7 12 0 -3
BITMAP
28
10
EE
44
28
28
28
10
10
10
A0
60
ENDCHAR
STARTCHAR acute
ENCODING 175
SWIDTH 333 0
DWIDTH 4 0
BBX 3 3 1 6
BITMAP
20
40
80
ENDCHAR
STARTCHAR degree
ENCODING 176
SWIDTH 333 0
DWIDTH 4 0
BBX 3 4 1 5
BITMAP
40
A0
A0
40
ENDCHAR
STARTCHAR afii10148
ENCODING 177
SWIDTH 750 0
DWIDTH 9 0
BBX 9 9 0 0
BITMAP
C000
4180
4180
2200
2200
1400
1400
0800
0800
ENDCHAR
STARTCHAR afii10146
ENCODING 178
SWIDTH 666 0
DWIDTH 8 0
BBX 6 11 1 0
BITMAP
60
20
F8
A8
A8
20
38
24
24
24
78
ENDCHAR
STARTCHAR afii10023
ENCODING 179
SWIDTH 666 0
DWIDTH 8 0
BBX 7 11 1 0
BITMAP
44
00
FE
42
40
48
78
48
40
42
FE
ENDCHAR
STARTCHAR afii10053
ENCODING 180
SWIDTH 666 0
DWIDTH 8 0
BBX 7 9 1 0
BITMAP
3A
46
82
80
F8
80
82
44
38
ENDCHAR
STARTCHAR afii10054
ENCODING 181
SWIDTH 500 0
DWIDTH 6 0
BBX 5 9 1 0
BITMAP
68
98
88
60
30
18
88
C8
B0
ENDCHAR
STARTCHAR afii10055
ENCODING 182
SWIDTH 333 0
DWIDTH 4 0
BBX 3 9 1 0
BITMAP
E0
40
40
40
40
40
40
40
E0
ENDCHAR
STARTCHAR afii10056
ENCODING 183
SWIDTH 333 0
DWIDTH 4 0
BBX 3 11 1 0
BITMAP
A0
00
E0
40
40
40
40
40
40
40
E0
ENDCHAR
STARTCHAR afii10057
ENCODING 184
SWIDTH 333 0
DWIDTH 4 0
BBX 4 9 0 0
BITMAP
70
20
20
20
20
20
20
A0
C0
ENDCHAR
STARTCHAR afii61352
ENCODING 185
SWIDTH 750 0
DWIDTH 9 0
BBX 8 9 1 0
BITMAP
DE
4D
6A
68
5F
58
48
48
E8
ENDCHAR
STARTCHAR cent
ENCODING 186
SWIDTH 500 0
DWIDTH 6 0
BBX 5 9 1 -1
BITMAP
20
78
A8
A0
A0
A0
A8
70
20
ENDCHAR
STARTCHAR guillemotright
ENCODING 187
SWIDTH 750 0
DWIDTH 9 0
BBX 8 7 1 0
BITMAP
90
4C
22
19
22
4C
90
ENDCHAR
STARTCHAR afii10147
ENCODING 188
SWIDTH 666 0
DWIDTH 8 0
BBX 7 9 1 0
BITMAP
38
44
82
82
FE
82
82
44
38
ENDCHAR
STARTCHAR afii10050
ENCODING 189
SWIDTH 583 0
DWIDTH 7 0
BBX 6 10 1 0
BITMAP
04
FC
40
40
40
40
40
40
40
E0
ENDCHAR
STARTCHAR afii10062
ENCODING 190
SWIDTH 833 0
DWIDTH 10 0
BBX 9 11 1 0
BITMAP
1400
0800
E380
4100
2200
2200
1400
1C00
0800
1000
7000
ENDCHAR
STARTCHAR copyright
ENCODING 191
SWIDTH 750 0
DWIDTH 9 0
BBX 8 9 1 0
BITMAP
3C
42
99
A5
A1
A5
99
42
3C
ENDCHAR
STARTCHAR afii10096
ENCODING 192
SWIDTH 750 0
DWIDTH 9 0
BBX 8 7 1 0
BITMAP
EE
51
51
71
51
51
EE
ENDCHAR
STARTCHAR afii10065
ENCODING 193
SWIDTH 416 0
DWIDTH 5 0
BBX 4 7 1 0
BITMAP
60
90
10
70
90
90
70
ENDCHAR
STARTCHAR afii10066
ENCODING 194
SWIDTH 416 0
DWIDTH 5 0
BBX 4 9 1 0
BITMAP
10
60
80
E0
90
90
90
90
60
ENDCHAR
STARTCHAR afii10088
ENCODING 195
SWIDTH 583 0
DWIDTH 7 0
BBX 6 9 1 -2
BITMAP
DC
48
48
48
48
48
7C
04
04
ENDCHAR
STARTCHAR afii10069
ENCODING 196
SWIDTH 583 0
DWIDTH 7 0
BBX 6 9 1 -2
BITMAP
7C
28
28
28
28
48
FC
84
84
ENDCHAR
STARTCHAR afii10070
ENCODING 197
SWIDTH 416 0
DWIDTH 5 0
BBX 4 7 1 0
BITMAP
60
90
90
F0
80
90
60
ENDCHAR
STARTCHAR afii10086
ENCODING 198
SWIDTH 666 0
DWIDTH 8 0
BBX 7 11 1 -3
BITMAP
10
7C
92
92
92
92
92
7C
10
10
38
ENDCHAR
STARTCHAR afii10068
ENCODING 199
SWIDTH 416 0
DWIDTH 5 0
BBX 4 7 1 0
BITMAP
F0
50
40
40
40
40
E0
ENDCHAR
STARTCHAR afii10087
ENCODING 200
SWIDTH 500 0
DWIDTH 6 0
BBX 5 7 1 0
BITMAP
D8
50
50
20
50
50
D8
ENDCHAR
STARTCHAR afii10074
ENCODING 201
SWIDTH 666 0
DWIDTH 8 0
BBX 7 7 1 0
BITMAP
EE
44
4C
54
64
44
EE
ENDCHAR
STARTCHAR afii10075
ENCODING 202
SWIDTH 666 0
DWIDTH 8 0
BBX 7 9 1 0
BITMAP
38
00
EE
44
4C
54
64
44
EE
ENDCHAR
STARTCHAR afii10076
ENCODING 203
SWIDTH 583 0
DWIDTH 7 0
BBX 6 7 1 0
BITMAP
EC
48
50
60
50
48
EC
ENDCHAR
STARTCHAR afii10077
ENCODING 204
SWIDTH 583 0
DWIDTH 7 0
BBX 6 7 1 0
BITMAP
3C
24
24
24
24
24
C4
ENDCHAR
STARTCHAR afii10078
ENCODING 205
SWIDTH 666 0
DWIDTH 8 0
BBX 7 7 1 0
BITMAP
82
C6
AA
92
92
82
82
ENDCHAR
STARTCHAR afii10079
ENCODING 206
SWIDTH 500 0
DWIDTH 6 0
BBX 5 7 1 0
BITMAP
88
88
88
F8
88
88
88
ENDCHAR
STARTCHAR afii10080
ENCODING 207
SWIDTH 416 0
DWIDTH 5 0
BBX 4 7 1 0
BITMAP
60
90
90
90
90
90
60
ENDCHAR
STARTCHAR afii10081
ENCODING 208
SWIDTH 416 0
DWIDTH 5 0
BBX 4 7 1 0
BITMAP
F0
90
90
90
90
90
90
ENDCHAR
STARTCHAR afii10097
ENCODING 209
SWIDTH 500 0
DWIDTH 6 0
BBX 5 7 1 0
BITMAP
78
88
88
78
48
88
88
ENDCHAR
STARTCHAR afii10082
ENCODING 210
SWIDTH 416 0
DWIDTH 5 0
BBX 5 9 0 -2
BITMAP
F0
48
48
48
48
48
70
40
E0
ENDCHAR
STARTCHAR afii10083
ENCODING 211
SWIDTH 416 0
DWIDTH 5 0
BBX 4 7 1 0
BITMAP
70
90
80
80
80
90
60
ENDCHAR
STARTCHAR afii10084
ENCODING 212
SWIDTH 500 0
DWIDTH 6 0
BBX 5 7 1 0
BITMAP
F8
A8
20
20
20
20
70
ENDCHAR
STARTCHAR afii10085
ENCODING 213
SWIDTH 583 0
DWIDTH 7 0
BBX 7 10 0 -3
BITMAP
EE
44
28
28
28
10
10
10
A0
60
ENDCHAR
STARTCHAR afii10072
ENCODING 214
SWIDTH 666 0
DWIDTH 8 0
BBX 7 7 1 0
BITMAP
D6
54
54
38
54
54
D6
ENDCHAR
STARTCHAR afii10067
ENCODING 215
SWIDTH 416 0
DWIDTH 5 0
BBX 4 7 1 0
BITMAP
E0
90
90
E0
90
90
E0
ENDCHAR
STARTCHAR afii10094
ENCODING 216
SWIDTH 500 0
DWIDTH 6 0
BBX 5 7 1 0
BITMAP
C0
40
40
70
48
48
F0
ENDCHAR
STARTCHAR afii10093
ENCODING 217
SWIDTH 750 0
DWIDTH 9 0
BBX 8 7 1 0
BITMAP
E7
42
42
72
4A
4A
F7
ENDCHAR
STARTCHAR afii10073
ENCODING 218
SWIDTH 416 0
DWIDTH 5 0
BBX 4 7 1 0
BITMAP
60
90
10
60
10
90
60
ENDCHAR
STARTCHAR afii10090
ENCODING 219
SWIDTH 833 0
DWIDTH 10 0
BBX 9 7 1 0
BITMAP
EB80
4900
4900
4900
4900
4900
FF80
ENDCHAR
STARTCHAR afii10095
ENCODING 220
SWIDTH 500 0
DWIDTH 6 0
BBX 5 7 1 0
BITMAP
70
88
08
78
08
88
70
ENDCHAR
STARTCHAR afii10091
ENCODING 221
SWIDTH 833 0
DWIDTH 10 0
BBX 9 9 1 -2
BITMAP
EB80
4900
4900
4900
4900
4900
FF80
0080
0080
ENDCHAR
STARTCHAR afii10089
ENCODING 222
SWIDTH 583 0
DWIDTH 7 0
BBX 6 7 1 0
BITMAP
EC
48
48
38
08
08
1C
ENDCHAR
STARTCHAR afii10092
ENCODING 223
SWIDTH 583 0
DWIDTH 7 0
BBX 6 7 1 0
BITMAP
E0
A0
20
38
24
24
78
ENDCHAR
STARTCHAR afii10048
ENCODING 224
SWIDTH 833 0
DWIDTH 10 0
BBX 8 9 1 0
BITMAP
E6
49
49
49
79
49
49
49
E6
ENDCHAR
STARTCHAR afii10017
ENCODING 225
SWIDTH 666 0
DWIDTH 8 0
BBX 8 9 0 0
BITMAP
08
08
14
14
22
3E
41
41
E3
ENDCHAR
STARTCHAR afii10018
ENCODING 226
SWIDTH 583 0
DWIDTH 7 0
BBX 6 9 1 0
BITMAP
FC
44
40
40
78
44
44
44
F8
ENDCHAR
STARTCHAR afii10040
ENCODING 227
SWIDTH 666 0
DWIDTH 8 0
BBX 7 11 1 -2
BITMAP
EE
44
44
44
44
44
44
44
FE
02
02
ENDCHAR
STARTCHAR afii10021
ENCODING 228
SWIDTH 750 0
DWIDTH 9 0
BBX 8 11 1 -2
BITMAP
7E
22
22
22
22
22
22
42
FF
81
81
ENDCHAR
STARTCHAR afii10022
ENCODING 229
SWIDTH 666 0
DWIDTH 8 0
BBX 7 9 1 0
BITMAP
FE
42
40
48
78
48
40
42
FE
ENDCHAR
STARTCHAR afii10038
ENCODING 230
SWIDTH 666 0
DWIDTH 8 0
BBX 7 11 1 0
BITMAP
38
10
7C
92
92
92
92
7C
10
10
38
ENDCHAR
STARTCHAR afii10020
ENCODING 231
SWIDTH 583 0
DWIDTH 7 0
BBX 6 9 1 0
BITMAP
FC
44
40
40
40
40
40
40
E0
ENDCHAR
STARTCHAR afii10039
ENCODING 232
SWIDTH 666 0
DWIDTH 8 0
BBX 7 9 1 0
BITMAP
EE
44
28
28
10
28
28
44
EE
ENDCHAR
STARTCHAR afii10026
ENCODING 233
SWIDTH 666 0
DWIDTH 8 0
BBX 7 9 1 0
BITMAP
EE
44
44
4C
54
64
44
44
EE
ENDCHAR
STARTCHAR afii10027
ENCODING 234
SWIDTH 666 0
DWIDTH 8 0
BBX 7 11 1 0
BITMAP
38
00
EE
44
44
4C
54
64
44
44
EE
ENDCHAR
STARTCHAR afii10028
ENCODING 235
SWIDTH 666 0
DWIDTH 8 0
BBX 7 9 1 0
BITMAP
E6
44
48
50
70
48
48
44
E6
ENDCHAR
STARTCHAR afii10029
ENCODING 236
SWIDTH 583 0
DWIDTH 7 0
BBX 6 9 1 0
BITMAP
7C
24
24
24
24
24
24
24
CC
ENDCHAR
STARTCHAR afii10030
ENCODING 237
SWIDTH 833 0
DWIDTH 10 0
BBX 9 9 1 0
BITMAP
C180
4100
6300
6300
5500
5500
5500
4900
C980
ENDCHAR
STARTCHAR afii10031
ENCODING 238
SWIDTH 666 0
DWIDTH 8 0
BBX 7 9 1 0
BITMAP
EE
44
44
44
7C
44
44
44
EE
ENDCHAR
STARTCHAR afii10032
ENCODING 239
SWIDTH 666 0
DWIDTH 8 0
BBX 7 9 1 0
BITMAP
38
44
82
82
82
82
82
44
38
ENDCHAR
STARTCHAR afii10033
ENCODING 240
SWIDTH 666 0
DWIDTH 8 0
BBX 7 9 1 0
BITMAP
FE
44
44
44
44
44
44
44
EE
ENDCHAR
STARTCHAR afii10049
ENCODING 241
SWIDTH 583 0
DWIDTH 7 0
BBX 7 9 0 0
BITMAP
3E
44
44
44
3C
24
44
44
EE
ENDCHAR
STARTCHAR afii10034
ENCODING 242
SWIDTH 583 0
DWIDTH 7 0
BBX 6 9 1 0
BITMAP
F8
44
44
44
78
40
40
40
E0
ENDCHAR
STARTCHAR afii10035
ENCODING 243
SWIDTH 583 0
DWIDTH 7 0
BBX 6 9 1 0
BITMAP
34
4C
84
80
80
80
84
48
30
ENDCHAR
STARTCHAR afii10036
ENCODING 244
SWIDTH 500 0
DWIDTH 6 0
BBX 5 9 1 0
BITMAP
F8
A8
20
20
20
20
20
20
70
ENDCHAR
STARTCHAR afii10037
ENCODING 245
SWIDTH 833 0
DWIDTH 10 0
BBX 9 9 1 0
BITMAP
E380
4100
2200
2200
1400
1C00
0800
1000
7000
ENDCHAR
STARTCHAR afii10024
ENCODING 246
SWIDTH 833 0
DWIDTH 10 0
BBX 9 9 1 0
BITMAP
DD80
4900
4900
2A00
1C00
2A00
4900
4900
DD80
ENDCHAR
STARTCHAR afii10019
ENCODING 247
SWIDTH 583 0
DWIDTH 7 0
BBX 6 9 1 0
BITMAP
F8
44
44
44
78
44
44
44
F8
ENDCHAR
STARTCHAR afii10046
ENCODING 248
SWIDTH 666 0
DWIDTH 8 0
BBX 6 9 1 0
BITMAP
C0
40
40
40
78
44
44
44
F8
ENDCHAR
STARTCHAR afii10045
ENCODING 249
SWIDTH 833 0
DWIDTH 10 0
BBX 9 9 1 0
BITMAP
E380
4100
4100
4100
7900
4500
4500
4500
FB80
ENDCHAR
STARTCHAR afii10025
ENCODING 250
SWIDTH 500 0
DWIDTH 6 0
BBX 5 9 1 0
BITMAP
F0
88
08
08
70
08
08
88
F0
ENDCHAR
STARTCHAR afii10042
ENCODING 251
SWIDTH 833 0
DWIDTH 10 0
BBX 9 9 1 0
BITMAP
EB80
4900
4900
4900
4900
4900
4900
4900
FF80
ENDCHAR
STARTCHAR afii10047
ENCODING 252
SWIDTH 666 0
DWIDTH 8 0
BBX 7 9 1 0
BITMAP
B8
C4
82
02
3E
02
82
44
38
ENDCHAR
STARTCHAR afii10043
ENCODING 253
SWIDTH 833 0
DWIDTH 10 0
BBX 9 11 1 -2
BITMAP
EB80
4900
4900
4900
4900
4900
4900
4900
FF80
0080
0080
ENDCHAR
STARTCHAR afii10041
ENCODING 254
SWIDTH 666 0
DWIDTH 8 0
BBX 7 9 1 0
BITMAP
EE
44
44
44
3C
04
04
04
0E
ENDCHAR
STARTCHAR afii10044
ENCODING 255
SWIDTH 666 0
DWIDTH 8 0
BBX 6 9 1 0
BITMAP
E0
A0
A0
20
38
24
24
24
78
ENDCHAR
ENDFONT
